<svg version="1.1" xmlns="http://www.w3.org/2000/svg" xmlns:xlink="http://www.w3.org/1999/xlink" x="0px" y="0px" width="100%" height="100%" viewBox="0 0 48 48" enable-background="new 0 0 48 48" xml:space="preserve" fit="" preserveAspectRatio="xMidYMid meet" focusable="false">
<g><g></g><g></g><g></g><g></g><g  display="none"></g><g><g>
    <circle fill="#9CCC65" cx="24" cy="24" r="21.75"></circle>
    <path fill="#FFFFFF" d="M16.835,36.254c-0.96,0-1.741-0.786-1.741-1.753l0.013-20.404c0-0.967,0.781-1.753,1.741-1.753h8.807
        l0.019,7.942h0.02v0.008h8.21v6.494c0.588,0.318,1.123,0.719,1.594,1.185v-9.105L27.38,10.75H16.847
        c-1.839,0-3.335,1.502-3.335,3.347L13.5,34.501c0,1.846,1.496,3.347,3.335,3.347h8.815c-0.475-0.469-0.882-1.006-1.207-1.594
        H16.835z M33.075,18.7h-5.811l-0.014-5.825L33.075,18.7z"></path>
    <path fill="#FFFFFF" d="M30.596,26.69c-3.428,0-6.217,2.789-6.217,6.217c0,3.428,2.789,6.217,6.217,6.217
        s6.217-2.789,6.217-6.217C36.813,29.479,34.023,26.69,30.596,26.69z M30.596,37.848c-2.725,0-4.941-2.217-4.941-4.941
        s2.217-4.941,4.941-4.941s4.941,2.217,4.941,4.941S33.321,37.848,30.596,37.848z"></path>
    <polygon fill="#FFFFFF" points="29.111,34.169 27.501,32.559 26.637,33.418 29.111,35.893 34.06,30.944 33.2,30.084 			"></polygon>
</g></g></g><g></g><g></g>
</svg>