<?xml version="1.0" encoding="UTF-8"?>
<!-- Created with Inkscape (http://www.inkscape.org/) -->
<svg width="72" height="72" version="1.1" viewBox="0 0 19.05 19.05" xmlns="http://www.w3.org/2000/svg" xmlns:cc="http://creativecommons.org/ns#" xmlns:dc="http://purl.org/dc/elements/1.1/" xmlns:rdf="http://www.w3.org/1999/02/22-rdf-syntax-ns#">
 <metadata>
  <rdf:RDF>
   <cc:Work rdf:about="">
    <dc:format>image/svg+xml</dc:format>
    <dc:type rdf:resource="http://purl.org/dc/dcmitype/StillImage"/>
    <dc:title/>
   </cc:Work>
  </rdf:RDF>
 </metadata>
 <g transform="translate(-7.4083 -15.875)">
  <rect x="7.4083" y="15.875" width="19.05" height="19.05" fill="none"/>
  <path d="m11.58 17.67c-1.3028 0-2.3794 1.0748-2.3794 2.3775v5.3524c0 0.64705 0.26445 1.2553 0.70854 1.6873l6.8646 6.872a0.84962 0.84955 0 0 0 0.01 0.0096c0.42746 0.41584 1.0201 0.69188 1.6776 0.69188 0.65739 0 1.2537-0.27484 1.6792-0.70018l5.3445-5.3441c0.44407-0.43203 0.70687-1.0387 0.70687-1.6857 0-0.66076-0.27312-1.262-0.69857-1.6873l-6.8827-6.87c-0.43101-0.43099-1.0321-0.69189-1.6792-0.69189zm0 1.699h5.3512c0.19401 0 0.35835 0.07448 0.47788 0.19424l6.8814 6.8807c0.1251 0.12489 0.20242 0.29056 0.20242 0.48613 0 0.19392-0.07237 0.3494-0.19413 0.46788a0.84962 0.84955 0 0 0-0.0084 0.0096l-5.3512 5.3525c-0.12506 0.12489-0.29419 0.20259-0.47788 0.20259-0.1837 0-0.35444-0.07608-0.49281-0.21062l-6.866-6.872a0.84962 0.84955 0 0 0-0.0084-0.0096c-0.12166-0.11848-0.19404-0.27548-0.19404-0.46956v-5.3524c0-0.39459 0.28568-0.67857 0.68031-0.67857zm2.2931 1.699c-0.6961 0-1.2743 0.57821-1.2743 1.2742 0 0.69603 0.57824 1.2743 1.2743 1.2743 0.69609 0 1.2743-0.5782 1.2743-1.2743s-0.57824-1.2742-1.2743-1.2742z" color="#000000" color-rendering="auto" image-rendering="auto" shape-rendering="auto" solid-color="#000000" stroke-width=".66894" style="isolation:auto;mix-blend-mode:normal;text-decoration-color:#000000;text-decoration-line:none;text-decoration-style:solid;text-indent:0;text-transform:none;white-space:normal"/>
 </g>
</svg>
