<?xml version="1.0" encoding="utf-8"?>
<!-- Generator: Adobe Illustrator 17.0.0, SVG Export Plug-In . SVG Version: 6.00 Build 0)  -->
<!DOCTYPE svg PUBLIC "-//W3C//DTD SVG 1.1//EN" "http://www.w3.org/Graphics/SVG/1.1/DTD/svg11.dtd">
<svg version="1.1" id="Layer_1" xmlns="http://www.w3.org/2000/svg" xmlns:xlink="http://www.w3.org/1999/xlink" x="0px" y="0px"
	 width="48px" height="48px" viewBox="0 0 48 48" enable-background="new 0 0 48 48" xml:space="preserve">
<g id="Layer_2">
</g>
<g id="Layer_3">
</g>
<g id="Layer_6">
</g>
<g id="Layer_4">
</g>
<g id="Layer_7">
	<g>
		<path d="M11.98,42.75c-1.505,0-2.73-1.233-2.73-2.75L9.27,8c0-1.517,1.225-2.75,2.73-2.75h13.813l0.03,12.456l0.031,0v0.013H38.75
			v10.185c0.922,0.499,1.762,1.127,2.5,1.858v-14.28L28.518,2.75H12c-2.884,0-5.23,2.355-5.23,5.249L6.75,40
			c0,2.895,2.346,5.25,5.23,5.25h13.825c-0.745-0.736-1.384-1.577-1.893-2.5H11.98z M37.451,15.219h-9.113l-0.022-9.136
			L37.451,15.219z"/>
		<path d="M33.563,27.75c-5.376,0-9.75,4.374-9.75,9.75s4.374,9.75,9.75,9.75s9.75-4.374,9.75-9.75S38.938,27.75,33.563,27.75z
			 M33.563,45.25c-4.273,0-7.75-3.477-7.75-7.75s3.477-7.75,7.75-7.75s7.75,3.477,7.75,7.75S37.836,45.25,33.563,45.25z"/>
		<polygon points="31.233,39.479 28.709,36.954 27.353,38.302 31.233,42.183 38.995,34.421 37.646,33.072 		"/>
	</g>
</g>
<g id="Layer_5" display="none">
</g>
</svg>
